<?xml version="1.0" encoding="UTF-8" standalone="no"?>
<!-- Created with Inkscape (http://www.inkscape.org/) -->

<svg
   version="1.1"
   id="svg1058"
   width="1600"
   height="1600"
   viewBox="0 0 1600 1600"
   sodipodi:docname="blooming-tree-clipart-pdv.svg"
   inkscape:version="1.2 (dc2aedaf03, 2022-05-15)"
   xmlns:inkscape="http://www.inkscape.org/namespaces/inkscape"
   xmlns:sodipodi="http://sodipodi.sourceforge.net/DTD/sodipodi-0.dtd"
   xmlns="http://www.w3.org/2000/svg"
   xmlns:svg="http://www.w3.org/2000/svg">
  <defs
     id="defs1062">
    <clipPath
       clipPathUnits="userSpaceOnUse"
       id="clipPath1076">
      <path
         d="M 0,1200 H 1200 V 0 H 0 Z"
         id="path1074" />
    </clipPath>
  </defs>
  <sodipodi:namedview
     id="namedview1060"
     pagecolor="#ffffff"
     bordercolor="#000000"
     borderopacity="0.25"
     inkscape:showpageshadow="2"
     inkscape:pageopacity="0.0"
     inkscape:pagecheckerboard="0"
     inkscape:deskcolor="#d1d1d1"
     showgrid="false"
     inkscape:zoom="0.523125"
     inkscape:cx="800"
     inkscape:cy="800.95579"
     inkscape:window-width="1920"
     inkscape:window-height="1017"
     inkscape:window-x="-8"
     inkscape:window-y="-8"
     inkscape:window-maximized="1"
     inkscape:current-layer="g1066">
    <inkscape:page
       x="0"
       y="0"
       id="page1064"
       width="1600"
       height="1600" />
  </sodipodi:namedview>
  <g
     id="g1066"
     inkscape:groupmode="layer"
     inkscape:label="Page 1"
     transform="matrix(1.3333333,0,0,-1.3333333,0,1600)">
    <path
       d="m 0.301,2.319 h 1197.51 v 1197.51 H 0.301 Z"
       style="fill:#9cceff;fill-opacity:1;fill-rule:nonzero;stroke:none"
       id="path1068" />
    <g
       id="g1070">
      <g
         id="g1072"
         clip-path="url(#clipPath1076)">
        <g
           id="g1078"
           transform="translate(0.3018,601.0205)">
          <path
             d="m 0,0 v 375.904 c 0.378,0.006 0.759,0.013 1.141,0.013 23.131,0 43.576,-11.513 55.918,-29.113 8.104,6.124 18.197,9.758 29.14,9.758 26.718,0 48.385,-21.662 48.385,-48.381 0,-24.544 -18.277,-44.817 -41.959,-47.96 -1.632,-19.802 -13.562,-36.68 -30.423,-45.275 1.366,-5.365 2.095,-10.988 2.095,-16.778 0,-13.243 -3.803,-25.592 -10.372,-36.026 36.481,-9.785 63.343,-43.077 63.343,-82.644 0,-47.255 -38.311,-85.565 -85.569,-85.565 C 20.499,-6.067 9.805,-3.913 0,0"
             style="fill:#356609;fill-opacity:1;fill-rule:evenodd;stroke:none"
             id="path1080" />
        </g>
        <g
           id="g1082"
           transform="translate(1197.8115,443.9492)">
          <path
             d="m 0,0 c -8.028,1.827 -16.381,2.795 -24.962,2.795 -6.798,0 -13.452,-0.606 -19.915,-1.767 -17.487,54.217 -68.35,93.444 -128.383,93.444 -37.369,0 -71.187,-15.2 -95.612,-39.75 -18.692,14.688 -42.26,23.453 -67.875,23.453 -60.71,0 -109.927,-49.218 -109.927,-109.927 0,-10.12 1.376,-19.919 3.936,-29.223 -22.647,32.393 -60.216,53.584 -102.742,53.584 -4.472,0 -8.889,-0.235 -13.243,-0.693 -19.271,26.355 -50.417,43.474 -85.565,43.474 -38.908,0 -72.912,-20.983 -91.332,-52.244 -19.066,18.465 -45.046,29.833 -73.684,29.833 -12.611,0 -24.703,-2.206 -35.918,-6.247 3.482,11.658 5.359,24.012 5.359,36.805 0,70.886 -57.464,128.35 -128.346,128.35 -47.645,0 -89.227,-25.963 -111.37,-64.513 -13.223,6.101 -27.945,9.506 -43.46,9.506 -29.21,0 -55.597,-12.056 -74.471,-31.457 v -262.362 c 3.154,1.216 6.214,2.619 9.172,4.19 12.984,-24.056 38.417,-40.406 67.67,-40.406 27.75,0 52.062,14.712 65.567,36.759 14.039,0.617 27.186,4.656 38.629,11.3 16.693,-17.08 39.976,-27.687 65.744,-27.687 25.27,0 48.156,10.2 64.771,26.706 19.295,-20.22 46.502,-32.814 76.653,-32.814 13.717,0 26.825,2.607 38.855,7.352 -0.096,-1.761 -0.146,-3.532 -0.146,-5.319 0,-54.005 43.782,-97.788 97.787,-97.788 34.565,0 64.941,17.936 82.329,45.003 13.966,-5.375 29.14,-8.333 44.999,-8.333 28.484,0 54.746,9.513 75.788,25.523 19.782,-28.212 52.539,-46.658 89.614,-46.658 60.404,0 109.376,48.968 109.376,109.377 0,15.611 -3.279,30.456 -9.175,43.891 0.504,0.305 1.005,0.614 1.502,0.925 24.723,-30.711 62.62,-50.367 105.115,-50.367 18.128,0 35.417,3.584 51.207,10.07 19.365,-33.526 55.593,-56.088 97.091,-56.088 8.581,0 16.934,0.965 24.962,2.792 z M 0,259.949 V 96.047 c -34.074,11.645 -58.574,43.935 -58.574,81.951 0,38.016 24.5,70.306 58.574,81.951"
             style="fill:#356609;fill-opacity:1;fill-rule:evenodd;stroke:none"
             id="path1084" />
        </g>
        <g
           id="g1086"
           transform="translate(0.3018,2.3193)">
          <path
             d="M 0,0 H 1197.51 V 302.743 L 0,302.742 Z"
             style="fill:#5f992c;fill-opacity:1;fill-rule:evenodd;stroke:none"
             id="path1088" />
        </g>
        <g
           id="g1090"
           transform="translate(953.3379,165.6045)">
          <path
             d="m 0,0 c 129.039,0 234.287,26.082 234.287,58.063 0,31.979 -105.248,58.061 -234.287,58.061 -129.039,0 -234.284,-26.082 -234.284,-58.061 C -234.284,26.082 -129.039,0 0,0"
             style="fill:#4c861a;fill-opacity:1;fill-rule:evenodd;stroke:none"
             id="path1092" />
        </g>
        <g
           id="g1094"
           transform="translate(877.9648,237.7607)">
          <path
             d="m 0,0 c 17.319,420.14 -337.158,465.123 -463.11,841.457 -8.3,24.81 -26.347,42.518 -51.323,50.312 -43.825,13.677 -77.56,38.961 -106.033,70.3 h 20.372 c 23.576,-19.522 48.789,-35.637 79.885,-39.483 8.469,-1.048 16.215,1.736 22.077,7.935 5.866,6.199 8.217,14.084 6.698,22.483 -0.54,3.001 -1.067,6.023 -1.578,9.065 h 81.49 c 3.926,-25.286 9.921,-49.099 17.713,-71.681 2.109,-6.107 6.244,-10.56 12.176,-13.116 5.932,-2.557 12.01,-2.5 17.892,0.162 26.955,12.204 45.165,38.298 57.527,84.635 h 19.865 c -8.283,-45.962 -23.592,-80.682 -44.85,-105.879 -19.285,-22.86 -20.552,-54.848 -3.13,-79.156 15.15,-21.138 31.951,-41.279 50.042,-60.75 12.538,-13.498 28.516,-20.299 46.936,-19.978 18.419,0.322 34.15,7.677 46.209,21.603 16.557,19.119 31.402,40.656 43.86,65.568 14.128,28.251 9.695,60.587 -11.513,83.993 -25.356,27.991 -42.688,59.629 -52.689,94.599 h 16.804 c 7.405,-23.254 18.779,-43.727 34.867,-60.9 7.895,-8.429 19.275,-11.307 30.23,-7.648 10.952,3.657 18.32,12.796 19.563,24.279 1.53,14.044 2.561,28.785 3.068,44.269 h 48.895 c 3.349,-28.809 4.566,-56.279 3.897,-82.566 -0.269,-10.574 5.424,-19.766 15.017,-24.229 9.589,-4.466 20.289,-2.908 28.208,4.109 29.226,25.891 53.713,59.31 71.934,102.686 H 78.824 C 54.762,905.38 15.027,845.38 -33.95,808.302 c -19.597,-14.838 -32.96,-31.344 -39.538,-55.839 -4.079,-15.169 -9.331,-29.786 -14.908,-44.104 -29.237,-75.097 -8.937,-156.597 52.111,-209.203 10.481,-9.032 20.933,-18.207 31.311,-27.551 32.075,-28.884 76.206,-34.899 114.841,-15.654 41.66,20.754 85.592,57.026 122.972,101.786 29.13,34.88 30.867,83.45 4.304,120.323 -50.712,70.402 -89.309,162.767 -111.976,284.009 h 25.469 c 12.361,-116.483 57.053,-199.343 122.345,-260.772 7.095,-6.678 16.439,-8.96 25.813,-6.307 9.374,2.653 16.139,9.493 18.682,18.897 0.842,3.107 1.631,6.221 2.371,9.334 V 584.692 C 282.878,488.28 242.07,428.781 193.417,384.671 158.471,352.981 151.18,302.096 175.819,261.868 221.642,187.063 257.117,99.239 275.029,-8.15 183.354,-5.434 91.677,-2.716 0,0"
             style="fill:#8a6100;fill-opacity:1;fill-rule:evenodd;stroke:none"
             id="path1096" />
        </g>
        <g
           id="g1098"
           transform="translate(1117.5049,368.8223)">
          <path
             d="m 0,0 c -6.28,0 -11.373,-5.093 -11.373,-11.373 0,-6.28 5.093,-11.37 11.373,-11.37 6.28,0 11.37,5.09 11.37,11.37 C 11.37,-5.093 6.28,0 0,0 m -233.047,-142.011 c -3.038,-1.989 -6.672,-3.143 -10.574,-3.143 -10.688,0 -19.352,8.664 -19.352,19.354 0,9.573 6.953,17.522 16.085,19.076 0.323,1.065 0.706,2.106 1.138,3.117 -7.159,3.309 -12.13,10.558 -12.13,18.963 0,8.579 5.17,15.947 12.568,19.16 -1.818,2.423 -2.892,5.434 -2.892,8.694 0,5.706 3.293,10.641 8.077,13.011 -1.896,1.632 -3.097,4.046 -3.097,6.745 0,4.907 3.98,8.883 8.887,8.883 4.907,0 8.883,-3.976 8.883,-8.883 0,-2.487 -1.018,-4.736 -2.666,-6.347 5.253,-2.185 8.946,-7.365 8.946,-13.409 0,-4.497 -2.042,-8.516 -5.256,-11.175 5.051,-3.813 8.314,-9.864 8.314,-16.679 l -0.007,-0.451 c 13.621,-0.669 24.898,-10.252 28.115,-23.041 3.226,3.242 7.696,5.252 12.637,5.252 3.322,0 6.435,-0.908 9.098,-2.493 3.038,2.477 6.671,4.244 10.657,5.057 -2.43,2.128 -3.965,5.255 -3.965,8.74 0,5.504 3.826,10.113 8.966,11.313 -3.486,1.566 -5.912,5.067 -5.912,9.136 0,5.53 4.482,10.014 10.013,10.014 5.531,0 10.014,-4.484 10.014,-10.014 0,-4.569 -3.061,-8.42 -7.241,-9.623 4.33,-1.691 7.393,-5.898 7.393,-10.826 0,-4.168 -2.194,-7.822 -5.491,-9.875 6.493,-2.486 11.666,-7.633 14.19,-14.106 1.448,0.299 2.947,0.455 4.482,0.455 5.455,0 10.445,-1.973 14.308,-5.239 4.029,5.929 10.833,9.824 18.542,9.824 4.765,0 9.181,-1.488 12.812,-4.025 3.651,2.262 7.879,3.674 12.415,3.966 0.226,3.903 1.618,7.49 3.833,10.422 -6.943,1.088 -12.252,7.093 -12.252,14.338 0,5.278 2.816,9.897 7.03,12.437 -0.906,1.479 -1.426,3.217 -1.426,5.073 0,5.378 4.357,9.739 9.735,9.739 5.378,0 9.735,-4.361 9.735,-9.739 0,-2.185 -0.722,-4.204 -1.939,-5.833 3.578,-2.642 5.895,-6.889 5.895,-11.677 0,-2.418 -0.59,-4.7 -1.637,-6.701 h 0.178 c 10.594,0 19.186,-8.588 19.186,-19.186 0,-0.663 -0.033,-1.32 -0.1,-1.967 8.701,-0.918 15.479,-8.276 15.479,-17.219 0,-0.553 -0.026,-1.1 -0.076,-1.641 2.072,2.636 4.943,4.612 8.246,5.574 -0.01,0.302 -0.02,0.604 -0.02,0.905 0,6.605 2.596,12.604 6.818,17.036 -4.759,3.562 -7.836,9.242 -7.836,15.642 0,10.05 7.594,18.323 17.355,19.404 -2.228,2.284 -3.604,5.405 -3.604,8.847 0,1.263 0.185,2.48 0.53,3.631 -0.437,-0.044 -0.882,-0.064 -1.329,-0.064 -7.435,0 -13.463,6.029 -13.463,13.463 0,7.348 5.89,13.32 13.204,13.459 -1.718,1.738 -2.778,4.124 -2.778,6.761 0,5.312 4.306,9.619 9.619,9.619 5.311,0 9.619,-4.307 9.619,-9.619 0,-4.785 -3.491,-8.751 -8.064,-9.493 3.236,-2.457 5.329,-6.351 5.329,-10.727 0,-1.536 -0.259,-3.011 -0.734,-4.383 0.245,0.012 0.488,0.019 0.734,0.019 6.996,0 12.666,-5.67 12.666,-12.666 0,-5.604 -3.641,-10.359 -8.688,-12.027 5.219,-3.505 8.655,-9.463 8.655,-16.224 0,-3.77 -1.068,-7.289 -2.921,-10.272 8.442,-3.93 14.291,-12.485 14.291,-22.406 0,-13.641 -11.059,-24.7 -24.7,-24.7 -1.943,0 -3.833,0.223 -5.647,0.647 -2.712,-5.226 -8.177,-8.797 -14.474,-8.797 -8.999,0 -16.297,7.295 -16.297,16.298 0,0.42 0.017,0.835 0.05,1.25 -3.164,-4.165 -8.167,-6.854 -13.8,-6.854 -3.263,0 -6.314,0.901 -8.92,2.47 -3.479,-10.883 -13.674,-18.768 -25.714,-18.768 -8.462,0 -16.016,3.897 -20.963,9.99 -1.92,-0.537 -3.943,-0.822 -6.032,-0.822 -5.6,0 -10.72,2.056 -14.646,5.451 -4.002,-5.758 -10.66,-9.526 -18.204,-9.526 -8.386,0 -15.687,4.659 -19.447,11.533 -2.524,-0.872 -5.236,-1.346 -8.058,-1.346 -7.152,0 -13.592,3.041 -18.101,7.898 0.016,-0.338 0.023,-0.68 0.023,-1.024 0,-11.955 -9.692,-21.647 -21.646,-21.647 -10.849,0 -19.832,7.982 -21.404,18.391 -1.89,-0.368 -3.846,-0.561 -5.846,-0.561 -5.617,0 -10.878,1.515 -15.401,4.161"
             style="fill:#71b337;fill-opacity:1;fill-rule:evenodd;stroke:none"
             id="path1100" />
        </g>
        <g
           id="g1102"
           transform="translate(0.3018,227.9951)">
          <path
             d="m 0,0 v 235.597 c 6.413,4.158 14.059,6.576 22.276,6.576 22.641,0 40.997,-18.357 40.997,-41.001 0,-4.496 -0.723,-8.823 -2.063,-12.868 6.672,-7.475 10.724,-17.329 10.724,-28.132 0,-0.534 -0.014,-1.065 -0.033,-1.592 7.096,5.773 16.148,9.232 26.009,9.232 22.78,0 41.253,-18.47 41.253,-41.252 0,-3.174 -0.358,-6.261 -1.038,-9.226 16.234,-4.128 29.381,-15.972 35.313,-31.397 3.071,2.188 6.493,3.913 10.167,5.07 6.3,17.461 23.019,29.948 42.651,29.948 15.747,0 29.614,-8.03 37.738,-20.217 4.364,1.867 9.165,2.902 14.212,2.902 7.56,0 14.576,-2.321 20.379,-6.29 5.159,12.65 17.577,21.569 32.081,21.569 19.129,0 34.634,-15.508 34.634,-34.634 0,-19.129 -15.505,-34.634 -34.634,-34.634 -6.808,0 -13.154,1.967 -18.506,5.356 -5.08,-13.827 -18.363,-23.693 -33.954,-23.693 -9.072,0 -17.362,3.343 -23.708,8.858 -7.747,-6.178 -17.561,-9.875 -28.242,-9.875 -2.046,0 -4.055,0.14 -6.028,0.397 -6.575,-6.591 -15.667,-10.667 -25.714,-10.667 -9.596,0 -18.324,3.721 -24.816,9.802 0.013,-0.477 0.023,-0.955 0.023,-1.433 0,-25.87 -20.972,-46.838 -46.843,-46.838 -8.478,0 -16.433,2.255 -23.294,6.193 -9.513,-9.632 -22.723,-15.604 -37.326,-15.604 -21.377,0 -39.763,12.786 -47.937,31.125 C 9.789,1.595 4.987,0.478 0,0"
             style="fill:#4c861a;fill-opacity:1;fill-rule:evenodd;stroke:none"
             id="path1104" />
        </g>
        <g
           id="g1106"
           transform="translate(1066.9248,113.6484)">
          <path
             d="M 0,0 C 26.44,0 47.878,-21.437 47.878,-47.877 47.878,-74.318 26.44,-95.752 0,-95.752 c -26.44,0 -47.874,21.434 -47.874,47.875 C -47.874,-21.437 -26.44,0 0,0 M -1066.623,161.177 V -52.129 c 0.577,0.107 1.154,0.22 1.731,0.336 7.401,-34.041 37.701,-59.536 73.957,-59.536 8.508,0 16.695,1.405 24.331,3.999 0.958,-1.37 1.966,-2.703 3.021,-3.999 h 105.858 c 1.426,1.754 2.772,3.577 4.022,5.468 0.58,-1.864 1.244,-3.688 1.993,-5.468 h 112.473 c 1.963,4.684 3.362,9.669 4.109,14.861 12.629,-9.337 28.247,-14.861 45.158,-14.861 9.244,0 18.105,1.651 26.301,4.675 -0.049,-1.058 -0.079,-2.122 -0.079,-3.19 0,-0.498 0.01,-0.991 0.019,-1.485 h 142.91 c 0.01,0.494 0.017,0.987 0.017,1.485 0,15.645 -5.027,30.108 -13.549,41.876 1.578,1.459 3.101,2.981 4.553,4.566 0.62,0.162 1.233,0.332 1.847,0.51 0.981,-19.533 10.352,-36.852 24.576,-48.437 h 455.166 c 0.219,2.417 0.335,4.864 0.335,7.338 0,24.775 -11.088,46.959 -28.565,61.87 17.318,7.683 29.401,25.031 29.401,45.201 0,27.297 -22.127,49.423 -49.423,49.423 -27.299,0 -49.426,-22.126 -49.426,-49.423 0,-9.662 2.773,-18.671 7.564,-26.284 -5.965,-0.67 -11.735,-1.986 -17.242,-3.873 -12.843,22.269 -36.9,37.264 -64.458,37.264 -37.879,0 -69.141,-28.325 -73.767,-64.948 -14.112,7.64 -30.274,11.977 -47.449,11.977 -19.544,0 -37.772,-5.62 -53.167,-15.326 -0.733,36.268 -30.362,65.452 -66.808,65.452 -7.059,0 -13.856,-1.098 -20.243,-3.127 -2.46,33.593 -30.495,60.083 -64.718,60.083 -8.489,0 -16.596,-1.632 -24.027,-4.597 -4.689,0.926 -9.529,1.416 -14.49,1.416 -26.062,0 -48.988,-13.412 -62.265,-33.705 -12.235,8.405 -27.05,13.333 -43.013,13.333 -24.239,0 -45.832,-11.347 -59.755,-29.014 -0.553,43.123 -35.675,77.906 -78.927,77.906 -43.6,0 -78.943,-35.343 -78.943,-78.944 0,-3.664 0.255,-7.268 0.736,-10.802 -1.254,0.069 -2.52,0.109 -3.793,0.109 -4.397,0 -8.698,-0.421 -12.866,-1.217 -10.806,21.118 -31.242,36.49 -55.517,40.324 0.716,5.037 1.094,10.183 1.094,15.418 0,53.144 -38.228,97.357 -88.682,106.652"
             style="fill:#7cb54b;fill-opacity:1;fill-rule:evenodd;stroke:none"
             id="path1108" />
        </g>
        <g
           id="g1110"
           transform="translate(432.3726,2.3193)">
          <path
             d="m 0,0 h 121.111 c 0.61,2.314 1.094,4.675 1.442,7.086 9.142,-4.533 19.441,-7.083 30.337,-7.083 5.743,0 11.314,0.71 16.646,2.043 C 169.34,1.369 169.155,0.687 168.982,0 H 412.7 L 412.746,0.308 412.975,0 h 352.464 v 130.807 c -26.846,-4.139 -49.078,-22.249 -59.039,-46.674 -6.648,-3.876 -12.62,-8.778 -17.713,-14.481 -6.47,2.574 -13.525,3.986 -20.91,3.986 -26.139,0 -48.139,-17.706 -54.675,-41.777 -0.318,0.007 -0.637,0.014 -0.958,0.014 -1.747,0 -3.472,-0.1 -5.173,-0.285 -0.302,6.266 -1.471,12.311 -3.388,18.009 2.205,3.769 3.468,8.153 3.468,12.835 0,14.062 -11.4,25.465 -25.466,25.465 -2.981,0 -5.839,-0.513 -8.499,-1.456 -9.675,5.465 -20.849,8.585 -32.753,8.585 -11.708,0 -22.707,-3.017 -32.27,-8.312 -11.442,10.236 -26.55,16.463 -43.109,16.463 -31.255,0 -57.332,-22.166 -63.37,-51.638 -13.326,20.651 -36.537,34.319 -62.944,34.319 -31.839,0 -59.032,-19.875 -69.858,-47.897 -10.432,7.086 -23.026,11.227 -36.587,11.227 -4.848,0 -9.57,-0.534 -14.116,-1.535 2.08,6.542 3.207,13.509 3.207,20.744 0,37.771 -30.621,68.396 -68.396,68.396 -35.92,0 -65.375,-27.694 -68.174,-62.896 -7.434,3.115 -15.597,4.832 -24.159,4.832 C 25.959,78.731 -2.089,50.686 -2.089,16.088 -2.089,10.524 -1.363,5.136 0,0 m -122.537,0 c -5.405,8.707 -8.625,18.906 -8.9,29.839 h -0.02 c -33.755,0 -61.117,27.362 -61.117,61.117 0,33.752 27.362,61.118 61.117,61.118 33.756,0 61.118,-27.366 61.118,-61.118 v -0.019 c 32.203,-0.813 58.06,-27.17 58.06,-59.57 0,-11.513 -3.263,-22.256 -8.916,-31.367 z M -432.071,57.396 V 0 h 248.655 c -0.384,35.672 -29.418,64.47 -65.183,64.47 -27.356,0 -50.772,-16.852 -60.444,-40.742 -5.097,1.326 -10.442,2.036 -15.953,2.036 -8.999,0 -17.56,-1.89 -25.313,-5.285 -10.614,23.536 -34.286,39.918 -61.78,39.918 -6.957,0 -13.665,-1.05 -19.982,-3.001"
             style="fill:#4c861a;fill-opacity:1;fill-rule:evenodd;stroke:none"
             id="path1112" />
        </g>
        <g
           id="g1114"
           transform="translate(413.4756,966.2407)">
          <path
             d="m 0,0 c 45.566,0 82.508,-36.939 82.508,-82.508 0,-45.57 -36.942,-82.508 -82.508,-82.508 -45.566,0 -82.508,36.938 -82.508,82.508 C -82.508,-36.939 -45.566,0 0,0"
             style="fill:#7cb54b;fill-opacity:1;fill-rule:evenodd;stroke:none"
             id="path1116" />
        </g>
        <g
           id="g1118"
           transform="translate(483.811,1009.0249)">
          <path
             d="m 0,0 c 30.403,0 55.05,-24.646 55.05,-55.053 0,-30.406 -24.647,-55.056 -55.05,-55.056 -30.406,0 -55.056,24.65 -55.056,55.056 C -55.056,-24.646 -30.406,0 0,0"
             style="fill:#7cb54b;fill-opacity:1;fill-rule:evenodd;stroke:none"
             id="path1120" />
        </g>
        <g
           id="g1122"
           transform="translate(451.3721,1124.728)">
          <path
             d="m 0,0 c 41.839,0 75.757,-33.918 75.757,-75.757 0,-41.839 -33.918,-75.754 -75.757,-75.754 -41.839,0 -75.757,33.915 -75.757,75.754 C -75.757,-33.918 -41.839,0 0,0"
             style="fill:#7cb54b;fill-opacity:1;fill-rule:evenodd;stroke:none"
             id="path1124" />
        </g>
        <g
           id="g1126"
           transform="translate(312.6309,1127.1851)">
          <path
             d="m 0,0 c 28.128,0 50.935,-22.803 50.935,-50.932 0,-28.128 -22.807,-50.931 -50.935,-50.931 -28.129,0 -50.931,22.803 -50.931,50.931 C -50.931,-22.803 -28.129,0 0,0"
             style="fill:#7cb54b;fill-opacity:1;fill-rule:evenodd;stroke:none"
             id="path1128" />
        </g>
        <g
           id="g1130"
           transform="translate(324.2563,1199.8301)">
          <path
             d="m 0,0 c 14.016,-8.399 23.4,-23.735 23.4,-41.264 0,-26.55 -21.52,-48.073 -48.07,-48.073 -26.55,0 -48.073,21.523 -48.073,48.073 0,17.529 9.387,32.865 23.4,41.264 z"
             style="fill:#7cb54b;fill-opacity:1;fill-rule:evenodd;stroke:none"
             id="path1132" />
        </g>
        <g
           id="g1134"
           transform="translate(478.877,1157.7437)">
          <path
             d="m 0,0 c 29.932,0 54.194,-24.265 54.194,-54.194 0,-29.935 -24.262,-54.201 -54.194,-54.201 -29.932,0 -54.194,24.266 -54.194,54.201 C -54.194,-24.265 -29.932,0 0,0"
             style="fill:#7cb54b;fill-opacity:1;fill-rule:evenodd;stroke:none"
             id="path1136" />
        </g>
        <g
           id="g1138"
           transform="translate(654.4307,1098.6621)">
          <path
             d="m 0,0 c 34.628,0 62.699,-28.068 62.699,-62.696 0,-34.627 -28.071,-62.699 -62.699,-62.699 -34.624,0 -62.695,28.072 -62.695,62.699 C -62.695,-28.068 -34.624,0 0,0"
             style="fill:#7cb54b;fill-opacity:1;fill-rule:evenodd;stroke:none"
             id="path1140" />
        </g>
        <g
           id="g1142"
           transform="translate(865.7461,1078.2896)">
          <path
             d="m 0,0 c 32.067,0 58.06,-25.993 58.06,-58.06 0,-32.068 -25.993,-58.061 -58.06,-58.061 -32.067,0 -58.064,25.993 -58.064,58.06 C -58.064,-25.993 -32.067,0 0,0"
             style="fill:#7cb54b;fill-opacity:1;fill-rule:evenodd;stroke:none"
             id="path1144" />
        </g>
        <g
           id="g1146"
           transform="translate(1060.3037,917.3486)">
          <path
             d="m 0,0 c 48.381,0 87.601,-39.22 87.601,-87.601 0,-48.381 -39.22,-87.601 -87.601,-87.601 -48.382,0 -87.602,39.22 -87.602,87.601 C -87.602,-39.22 -48.382,0 0,0"
             style="fill:#7cb54b;fill-opacity:1;fill-rule:evenodd;stroke:none"
             id="path1148" />
        </g>
        <g
           id="g1150"
           transform="translate(1034.5029,1061.9922)">
          <path
             d="m 0,0 c 21.755,0 39.392,-17.637 39.392,-39.392 0,-21.755 -17.637,-39.392 -39.392,-39.392 -21.755,0 -39.393,17.637 -39.393,39.392 C -39.393,-17.637 -21.755,0 0,0"
             style="fill:#7cb54b;fill-opacity:1;fill-rule:evenodd;stroke:none"
             id="path1152" />
        </g>
        <g
           id="g1154"
           transform="translate(1036.874,1139.4087)">
          <path
             d="m 0,0 c 45.569,0 82.511,-36.94 82.511,-82.51 0,-45.569 -36.942,-82.508 -82.511,-82.508 -45.566,0 -82.509,36.939 -82.509,82.508 C -82.509,-36.94 -45.566,0 0,0"
             style="fill:#7cb54b;fill-opacity:1;fill-rule:evenodd;stroke:none"
             id="path1156" />
        </g>
        <g
           id="g1158"
           transform="translate(995.4687,1199.8301)">
          <path
             d="m 0,0 c 11.121,-11.385 17.976,-26.951 17.976,-44.124 0,-34.877 -28.275,-63.152 -63.155,-63.152 -34.879,0 -63.153,28.275 -63.153,63.152 0,17.173 6.857,32.739 17.976,44.124 z"
             style="fill:#7cb54b;fill-opacity:1;fill-rule:evenodd;stroke:none"
             id="path1160" />
        </g>
        <g
           id="g1162"
           transform="translate(812.2949,1199.8301)">
          <path
             d="m 0,0 c 22.8,0 41.282,-18.482 41.282,-41.282 0,-22.8 -18.482,-41.281 -41.282,-41.281 -22.8,0 -41.282,18.481 -41.282,41.281 C -41.282,-18.482 -22.8,0 0,0"
             style="fill:#7cb54b;fill-opacity:1;fill-rule:evenodd;stroke:none"
             id="path1164" />
        </g>
        <g
           id="g1166"
           transform="translate(755.6768,1199.8301)">
          <path
             d="m 0,0 c 1.147,-4.443 1.761,-9.104 1.761,-13.907 0,-30.569 -24.78,-55.349 -55.348,-55.349 -30.569,0 -55.349,24.78 -55.349,55.349 0,4.803 0.615,9.464 1.761,13.907 z"
             style="fill:#7cb54b;fill-opacity:1;fill-rule:evenodd;stroke:none"
             id="path1168" />
        </g>
        <g
           id="g1170"
           transform="translate(574.8242,1199.8301)">
          <path
             d="m 0,0 c 0.799,-3.475 1.22,-7.094 1.22,-10.813 0,-26.608 -21.569,-48.179 -48.179,-48.179 -26.606,0 -48.179,21.571 -48.179,48.179 0,3.719 0.421,7.338 1.22,10.813 z"
             style="fill:#7cb54b;fill-opacity:1;fill-rule:evenodd;stroke:none"
             id="path1172" />
        </g>
        <g
           id="g1174"
           transform="translate(687.4863,956.0542)">
          <path
             d="m 0,0 c 32.628,0 59.079,-26.45 59.079,-59.078 0,-32.631 -26.451,-59.082 -59.079,-59.082 -32.631,0 -59.081,26.451 -59.081,59.082 C -59.081,-26.45 -32.631,0 0,0"
             style="fill:#7cb54b;fill-opacity:1;fill-rule:evenodd;stroke:none"
             id="path1176" />
        </g>
        <g
           id="g1178"
           transform="translate(582.0264,873.2378)">
          <path
             d="m 0,0 c 32.366,0 58.604,-26.238 58.604,-58.604 0,-32.363 -26.238,-58.598 -58.604,-58.598 -32.363,0 -58.601,26.235 -58.601,58.598 C -58.601,-26.238 -32.363,0 0,0"
             style="fill:#7cb54b;fill-opacity:1;fill-rule:evenodd;stroke:none"
             id="path1180" />
        </g>
        <g
           id="g1182"
           transform="translate(540.3794,952.9575)">
          <path
             d="m 0,0 c 38.199,0 69.162,-30.963 69.162,-69.159 0,-38.198 -30.963,-69.161 -69.162,-69.161 -38.199,0 -69.162,30.963 -69.162,69.161 C -69.162,-30.963 -38.199,0 0,0"
             style="fill:#7cb54b;fill-opacity:1;fill-rule:evenodd;stroke:none"
             id="path1184" />
        </g>
        <g
           id="g1186"
           transform="translate(398.438,1039.2788)">
          <path
             d="m 0,0 c 28.045,0 50.782,-22.733 50.782,-50.779 0,-28.045 -22.737,-50.779 -50.782,-50.779 -28.042,0 -50.779,22.734 -50.779,50.779 C -50.779,-22.733 -28.042,0 0,0"
             style="fill:#7cb54b;fill-opacity:1;fill-rule:evenodd;stroke:none"
             id="path1188" />
        </g>
        <g
           id="g1190"
           transform="translate(886.1191,921.4238)">
          <path
             d="m 0,0 c 30.94,0 56.021,-25.084 56.021,-56.024 0,-30.944 -25.081,-56.025 -56.021,-56.025 -30.943,0 -56.024,25.081 -56.024,56.025 C -56.024,-25.084 -30.943,0 0,0"
             style="fill:#5f992c;fill-opacity:1;fill-rule:evenodd;stroke:none"
             id="path1192" />
        </g>
        <g
           id="g1194"
           transform="translate(1043.0479,997.6221)">
          <path
             d="m 0,0 c 35.104,0 63.564,-28.457 63.564,-63.565 0,-35.108 -28.46,-63.564 -63.564,-63.564 -35.108,0 -63.568,28.456 -63.568,63.564 C -63.568,-28.457 -35.108,0 0,0"
             style="fill:#5f992c;fill-opacity:1;fill-rule:evenodd;stroke:none"
             id="path1196" />
        </g>
        <g
           id="g1198"
           transform="translate(1132.625,1096.6265)">
          <path
             d="m 0,0 c 21.941,0 39.728,-17.787 39.728,-39.728 0,-21.94 -17.787,-39.727 -39.728,-39.727 -21.94,0 -39.727,17.787 -39.727,39.727 C -39.727,-17.787 -21.94,0 0,0"
             style="fill:#5f992c;fill-opacity:1;fill-rule:evenodd;stroke:none"
             id="path1200" />
        </g>
        <g
           id="g1202"
           transform="translate(879.7256,1158.6157)">
          <path
             d="m 0,0 c 31.156,0 56.413,-25.257 56.413,-56.412 0,-31.156 -25.257,-56.413 -56.413,-56.413 -31.155,0 -56.412,25.257 -56.412,56.413 C -56.412,-25.257 -31.155,0 0,0"
             style="fill:#5f992c;fill-opacity:1;fill-rule:evenodd;stroke:none"
             id="path1204" />
        </g>
        <g
           id="g1206"
           transform="translate(730.9805,1090.6909)">
          <path
             d="m 0,0 c 25.363,0 45.925,-20.562 45.925,-45.924 0,-25.367 -20.562,-45.928 -45.925,-45.928 -25.366,0 -45.928,20.561 -45.928,45.928 C -45.928,-20.562 -25.366,0 0,0"
             style="fill:#5f992c;fill-opacity:1;fill-rule:evenodd;stroke:none"
             id="path1208" />
        </g>
        <g
           id="g1210"
           transform="translate(711.1914,934.0669)">
          <path
             d="m 0,0 c 38.977,0 70.574,-31.596 70.574,-70.578 0,-38.977 -31.597,-70.574 -70.574,-70.574 -38.981,0 -70.577,31.597 -70.577,70.574 C -70.577,-31.597 -38.981,0 0,0"
             style="fill:#5f992c;fill-opacity:1;fill-rule:evenodd;stroke:none"
             id="path1212" />
        </g>
        <g
           id="g1214"
           transform="translate(792.4033,748.2573)">
          <path
             d="m 0,0 c 12.939,0 23.43,-10.491 23.43,-23.43 0,-12.938 -10.491,-23.429 -23.43,-23.429 -12.938,0 -23.427,10.491 -23.427,23.429 C -23.427,-10.491 -12.938,0 0,0"
             style="fill:#5f992c;fill-opacity:1;fill-rule:evenodd;stroke:none"
             id="path1216" />
        </g>
        <g
           id="g1218"
           transform="translate(797.7051,1021.2373)">
          <path
             d="m 0,0 c 37.015,0 67.023,-30.008 67.023,-67.02 0,-37.018 -30.008,-67.026 -67.023,-67.026 -37.015,0 -67.023,30.008 -67.023,67.026 C -67.023,-30.008 -37.015,0 0,0"
             style="fill:#5f992c;fill-opacity:1;fill-rule:evenodd;stroke:none"
             id="path1220" />
        </g>
        <g
           id="g1222"
           transform="translate(588.499,1027.7427)">
          <path
             d="m 0,0 c 28.781,0 52.111,-23.33 52.111,-52.115 0,-28.781 -23.33,-52.115 -52.111,-52.115 -28.785,0 -52.119,23.334 -52.119,52.115 C -52.119,-23.33 -28.785,0 0,0"
             style="fill:#5f992c;fill-opacity:1;fill-rule:evenodd;stroke:none"
             id="path1224" />
        </g>
        <g
           id="g1226"
           transform="translate(433.5063,1015.8853)">
          <path
             d="m 0,0 c 27.784,0 50.301,-22.521 50.301,-50.301 0,-27.784 -22.517,-50.302 -50.301,-50.302 -27.783,0 -50.301,22.518 -50.301,50.302 C -50.301,-22.521 -27.783,0 0,0"
             style="fill:#5f992c;fill-opacity:1;fill-rule:evenodd;stroke:none"
             id="path1228" />
        </g>
        <g
           id="g1230"
           transform="translate(505.7983,883.7988)">
          <path
             d="M 0,0 C 19.096,0 34.581,-15.481 34.581,-34.581 34.581,-53.68 19.096,-69.158 0,-69.158 c -19.096,0 -34.581,15.478 -34.581,34.577 C -34.581,-15.481 -19.096,0 0,0"
             style="fill:#5f992c;fill-opacity:1;fill-rule:evenodd;stroke:none"
             id="path1232" />
        </g>
        <g
           id="g1234"
           transform="translate(450.5469,1145.52)">
          <path
             d="m 0,0 c 26.659,0 48.272,-21.613 48.272,-48.274 0,-26.663 -21.613,-48.275 -48.272,-48.275 -26.663,0 -48.279,21.612 -48.279,48.275 C -48.279,-21.613 -26.663,0 0,0"
             style="fill:#5f992c;fill-opacity:1;fill-rule:evenodd;stroke:none"
             id="path1236" />
        </g>
        <g
           id="g1238"
           transform="translate(393.02,1117.1147)">
          <path
             d="m 0,0 c 38.149,0 69.072,-30.923 69.072,-69.072 0,-38.146 -30.923,-69.069 -69.072,-69.069 -38.146,0 -69.072,30.923 -69.072,69.069 C -69.072,-30.923 -38.146,0 0,0"
             style="fill:#5f992c;fill-opacity:1;fill-rule:evenodd;stroke:none"
             id="path1240" />
        </g>
        <g
           id="g1242"
           transform="translate(1128.5498,1199.8301)">
          <path
             d="m 0,0 c 35.443,0 64.175,-28.732 64.175,-64.173 0,-35.443 -28.732,-64.175 -64.175,-64.175 -35.439,0 -64.171,28.732 -64.171,64.175 C -64.171,-28.732 -35.439,0 0,0"
             style="fill:#5f992c;fill-opacity:1;fill-rule:evenodd;stroke:none"
             id="path1244" />
        </g>
        <g
           id="g1246"
           transform="translate(1197.8115,917.5044)">
          <path
             d="m 0,0 c -36.395,2.361 -65.187,32.628 -65.187,69.62 0,36.994 28.792,67.258 65.187,69.619 z"
             style="fill:#5f992c;fill-opacity:1;fill-rule:evenodd;stroke:none"
             id="path1248" />
        </g>
        <g
           id="g1250"
           transform="translate(697.8721,1199.8301)">
          <path
             d="m 0,0 c 0.537,-3.082 0.819,-6.253 0.819,-9.49 0,-30.378 -24.627,-55.007 -55.004,-55.007 -30.38,0 -55.009,24.629 -55.009,55.007 0,3.236 0.285,6.408 0.822,9.49 z"
             style="fill:#5f992c;fill-opacity:1;fill-rule:evenodd;stroke:none"
             id="path1252" />
        </g>
        <g
           id="g1254"
           transform="translate(901.1924,1199.8301)">
          <path
             d="m 0,0 c 0.133,-1.62 0.206,-3.254 0.206,-4.906 0,-32.909 -26.68,-59.589 -59.589,-59.589 -32.913,0 -59.589,26.68 -59.589,59.589 0,1.652 0.07,3.286 0.202,4.906 z"
             style="fill:#5f992c;fill-opacity:1;fill-rule:evenodd;stroke:none"
             id="path1256" />
        </g>
        <g
           id="g1258"
           transform="translate(1080.9473,1199.8301)">
          <path
             d="m 0,0 c 1.805,-5.554 2.786,-11.481 2.786,-17.639 0,-31.504 -25.539,-57.042 -57.046,-57.042 -31.504,0 -57.039,25.538 -57.039,57.042 0,6.158 0.978,12.085 2.782,17.639 z"
             style="fill:#5f992c;fill-opacity:1;fill-rule:evenodd;stroke:none"
             id="path1260" />
        </g>
        <g
           id="g1262"
           transform="translate(1197.8115,1090.6709)">
          <path
             d="m 0,0 c -35.831,2.361 -64.168,32.17 -64.168,68.602 0,15.168 4.917,29.187 13.236,40.557 H 0 Z"
             style="fill:#5f992c;fill-opacity:1;fill-rule:evenodd;stroke:none"
             id="path1264" />
        </g>
        <g
           id="g1266"
           transform="translate(472.7231,1199.8301)">
          <path
             d="m 0,0 c 1.615,-4.495 2.493,-9.337 2.493,-14.386 0,-23.519 -19.066,-42.587 -42.582,-42.587 -23.522,0 -42.588,19.068 -42.588,42.587 0,5.049 0.882,9.891 2.493,14.386 z"
             style="fill:#7cb54b;fill-opacity:1;fill-rule:evenodd;stroke:none"
             id="path1268" />
        </g>
        <g
           id="g1270"
           transform="translate(627.3242,1199.8301)">
          <path
             d="m 0,0 c 0.507,-2.432 0.779,-4.949 0.779,-7.532 0,-20.208 -16.383,-36.592 -36.593,-36.592 -20.207,0 -36.594,16.384 -36.594,36.592 0,2.583 0.272,5.1 0.779,7.532 z"
             style="fill:#7cb54b;fill-opacity:1;fill-rule:evenodd;stroke:none"
             id="path1272" />
        </g>
        <g
           id="g1274"
           transform="translate(423.98,1071.1606)">
          <path
             d="m 0,0 c 15.366,0 27.82,-12.455 27.82,-27.82 0,-15.366 -12.454,-27.82 -27.82,-27.82 -15.366,0 -27.82,12.454 -27.82,27.82 C -27.82,-12.455 -15.366,0 0,0"
             style="fill:#7cb54b;fill-opacity:1;fill-rule:evenodd;stroke:none"
             id="path1276" />
        </g>
        <g
           id="g1278"
           transform="translate(597.8462,990.6885)">
          <path
             d="m 0,0 c 9.563,0 17.319,-7.753 17.319,-17.315 0,-9.563 -7.756,-17.316 -17.319,-17.316 -9.563,0 -17.315,7.753 -17.315,17.316 C -17.315,-7.753 -9.563,0 0,0"
             style="fill:#7cb54b;fill-opacity:1;fill-rule:evenodd;stroke:none"
             id="path1280" />
        </g>
        <g
           id="g1282"
           transform="translate(853.8096,974.0464)">
          <path
             d="M 0,0 C 12.842,0 23.254,-10.412 23.254,-23.257 23.254,-36.1 12.842,-46.511 0,-46.511 c -12.846,0 -23.258,10.411 -23.258,23.254 C -23.258,-10.412 -12.846,0 0,0"
             style="fill:#7cb54b;fill-opacity:1;fill-rule:evenodd;stroke:none"
             id="path1284" />
        </g>
        <g
           id="g1286"
           transform="translate(905.4736,1123.1099)">
          <path
             d="m 0,0 c 12.938,0 23.426,-10.488 23.426,-23.426 0,-12.939 -10.488,-23.43 -23.426,-23.43 -12.938,0 -23.43,10.491 -23.43,23.43 C -23.43,-10.488 -12.938,0 0,0"
             style="fill:#7cb54b;fill-opacity:1;fill-rule:evenodd;stroke:none"
             id="path1288" />
        </g>
        <g
           id="g1290"
           transform="translate(1118.3633,1152.6509)">
          <path
             d="m 0,0 c 10.127,0 18.337,-8.208 18.337,-18.335 0,-10.127 -8.21,-18.335 -18.337,-18.335 -10.123,0 -18.333,8.208 -18.333,18.335 C -18.333,-8.208 -10.123,0 0,0"
             style="fill:#7cb54b;fill-opacity:1;fill-rule:evenodd;stroke:none"
             id="path1292" />
        </g>
        <g
           id="g1294"
           transform="translate(1034.8711,1199.8301)">
          <path
             d="m 0,0 c 10.498,0 19.006,-8.51 19.006,-19.005 0,-10.496 -8.508,-19.006 -19.006,-19.006 -10.495,0 -19.003,8.51 -19.003,19.006 C -19.003,-8.51 -10.495,0 0,0"
             style="fill:#7cb54b;fill-opacity:1;fill-rule:evenodd;stroke:none"
             id="path1296" />
        </g>
        <g
           id="g1298"
           transform="translate(1086.5449,934.0571)">
          <path
             d="m 0,0 c 24.02,0 43.494,-19.474 43.494,-43.497 0,-24.02 -19.474,-43.497 -43.494,-43.497 -24.023,0 -43.497,19.477 -43.497,43.497 C -43.497,-19.474 -24.023,0 0,0"
             style="fill:#7cb54b;fill-opacity:1;fill-rule:evenodd;stroke:none"
             id="path1300" />
        </g>
        <g
           id="g1302"
           transform="translate(954.876,987.6348)">
          <path
             d="m 0,0 c 16.032,0 29.03,-12.999 29.03,-29.034 0,-16.029 -12.998,-29.027 -29.03,-29.027 -16.032,0 -29.03,12.998 -29.03,29.027 C -29.03,-12.999 -16.032,0 0,0"
             style="fill:#7cb54b;fill-opacity:1;fill-rule:evenodd;stroke:none"
             id="path1304" />
        </g>
        <g
           id="g1306"
           transform="translate(840.2705,1199.8301)">
          <path
             d="m 0,0 c 0.01,-0.446 0.017,-0.894 0.017,-1.345 0,-28.13 -22.803,-50.932 -50.935,-50.932 -28.132,0 -50.934,22.802 -50.934,50.932 0,0.451 0.006,0.899 0.016,1.345 z"
             style="fill:#7cb54b;fill-opacity:1;fill-rule:evenodd;stroke:none"
             id="path1308" />
        </g>
        <g
           id="g1310"
           transform="translate(280.0957,1199.8301)">
          <path
             d="m 0,0 c 3.528,-6.267 5.541,-13.499 5.541,-21.203 0,-23.909 -19.381,-43.292 -43.292,-43.292 -23.907,0 -43.292,19.383 -43.292,43.292 0,7.704 2.017,14.936 5.544,21.203 z"
             style="fill:#7cb54b;fill-opacity:1;fill-rule:evenodd;stroke:none"
             id="path1312" />
        </g>
        <g
           id="g1314"
           transform="translate(269.9595,1199.8301)">
          <path
             d="m 0,0 c 2.785,-5.68 8.621,-9.591 15.372,-9.591 6.754,0 12.593,3.911 15.379,9.591 z"
             style="fill:#7cb54b;fill-opacity:1;fill-rule:evenodd;stroke:none"
             id="path1316" />
        </g>
        <g
           id="g1318"
           transform="translate(349.0488,1177.0981)">
          <path
             d="m 0,0 c 28.549,0 51.694,-23.145 51.694,-51.694 0,-28.553 -23.145,-51.697 -51.694,-51.697 -28.549,0 -51.694,23.144 -51.694,51.697 C -51.694,-23.145 -28.549,0 0,0"
             style="fill:#7cb54b;fill-opacity:1;fill-rule:evenodd;stroke:none"
             id="path1320" />
        </g>
        <g
           id="g1322"
           transform="translate(579.1714,1131.4473)">
          <path
             d="m 0,0 c 22.975,0 41.6,-18.626 41.6,-41.602 0,-22.976 -18.625,-41.601 -41.6,-41.601 -22.976,0 -41.601,18.625 -41.601,41.601 C -41.601,-18.626 -22.976,0 0,0"
             style="fill:#7cb54b;fill-opacity:1;fill-rule:evenodd;stroke:none"
             id="path1324" />
        </g>
        <g
           id="g1326"
           transform="translate(632.2646,1199.8301)">
          <path
             d="m 0,0 c 33.421,0 60.511,-27.092 60.511,-60.512 0,-33.421 -27.09,-60.514 -60.511,-60.514 -33.42,0 -60.514,27.093 -60.514,60.514 C -60.514,-27.092 -33.42,0 0,0"
             style="fill:#7cb54b;fill-opacity:1;fill-rule:evenodd;stroke:none"
             id="path1328" />
        </g>
        <g
           id="g1330"
           transform="translate(604.4678,1163.5596)">
          <path
             d="m 0,0 c 25.091,0 45.431,-20.342 45.431,-45.434 0,-25.094 -20.34,-45.433 -45.431,-45.433 -25.094,0 -45.436,20.339 -45.436,45.433 C -45.436,-20.342 -25.094,0 0,0"
             style="fill:#5f992c;fill-opacity:1;fill-rule:evenodd;stroke:none"
             id="path1332" />
        </g>
        <g
           id="g1334"
           transform="translate(521.9565,1172.5156)">
          <path
             d="m 0,0 c 18.005,0 32.598,-14.593 32.598,-32.595 0,-18.003 -14.593,-32.597 -32.598,-32.597 -17.998,0 -32.595,14.594 -32.595,32.597 C -32.595,-14.593 -17.998,0 0,0"
             style="fill:#5f992c;fill-opacity:1;fill-rule:evenodd;stroke:none"
             id="path1336" />
        </g>
        <g
           id="g1338"
           transform="translate(782.0215,1188.4966)">
          <path
             d="m 0,0 c 23.539,0 42.622,-19.083 42.622,-42.624 0,-23.541 -19.083,-42.621 -42.622,-42.621 -23.543,0 -42.625,19.08 -42.625,42.621 C -42.625,-19.083 -23.543,0 0,0"
             style="fill:#5f992c;fill-opacity:1;fill-rule:evenodd;stroke:none"
             id="path1340" />
        </g>
        <g
           id="g1342"
           transform="translate(1012.9365,1110.3804)">
          <path
             d="m 0,0 c 28.132,0 50.935,-22.803 50.935,-50.931 0,-28.132 -22.803,-50.932 -50.935,-50.932 -28.128,0 -50.932,22.8 -50.932,50.932 C -50.932,-22.803 -28.128,0 0,0"
             style="fill:#5f992c;fill-opacity:1;fill-rule:evenodd;stroke:none"
             id="path1344" />
        </g>
        <g
           id="g1346"
           transform="translate(980.8495,1145.0127)">
          <path
             d="m 0,0 c 16.596,0 30.051,-13.454 30.051,-30.05 0,-16.592 -13.455,-30.048 -30.051,-30.048 -16.593,0 -30.049,13.455 -30.049,30.048 C -30.049,-13.454 -16.593,0 0,0"
             style="fill:#5f992c;fill-opacity:1;fill-rule:evenodd;stroke:none"
             id="path1348" />
        </g>
        <g
           id="g1350"
           transform="translate(1019.2568,852.9717)">
          <path
             d="m 0,0 c 23.993,0 43.444,-19.451 43.444,-43.444 0,-23.994 -19.451,-43.444 -43.444,-43.444 -23.994,0 -43.444,19.45 -43.444,43.444 C -43.444,-19.451 -23.994,0 0,0"
             style="fill:#5f992c;fill-opacity:1;fill-rule:evenodd;stroke:none"
             id="path1352" />
        </g>
        <g
           id="g1354"
           transform="translate(923.6973,986.1094)">
          <path
             d="m 0,0 c 24.972,0 45.218,-20.247 45.218,-45.222 0,-24.971 -20.246,-45.214 -45.218,-45.214 -24.975,0 -45.218,20.243 -45.218,45.214 C -45.218,-20.247 -24.975,0 0,0"
             style="fill:#5f992c;fill-opacity:1;fill-rule:evenodd;stroke:none"
             id="path1356" />
        </g>
        <g
           id="g1358"
           transform="translate(910.6562,1025.833)">
          <path
             d="m 0,0 c 14.394,0 26.065,-11.672 26.065,-26.062 0,-14.398 -11.671,-26.07 -26.065,-26.07 -14.395,0 -26.066,11.672 -26.066,26.07 C -26.066,-11.672 -14.395,0 0,0"
             style="fill:#5f992c;fill-opacity:1;fill-rule:evenodd;stroke:none"
             id="path1360" />
        </g>
        <g
           id="g1362"
           transform="translate(948.957,1050.1084)">
          <path
             d="M 0,0 C 18.46,0 33.421,-14.961 33.421,-33.42 33.421,-51.877 18.46,-66.837 0,-66.837 c -18.456,0 -33.417,14.96 -33.417,33.417 C -33.417,-14.961 -18.456,0 0,0"
             style="fill:#5f992c;fill-opacity:1;fill-rule:evenodd;stroke:none"
             id="path1364" />
        </g>
        <g
           id="g1366"
           transform="translate(212.8076,1161.3115)">
          <path
             d="m 0,0 c 34.037,0 61.628,-27.591 61.628,-61.628 0,-34.034 -27.591,-61.625 -61.628,-61.625 -34.034,0 -61.625,27.591 -61.625,61.625 C -61.625,-27.591 -34.034,0 0,0"
             style="fill:#92d459;fill-opacity:1;fill-rule:evenodd;stroke:none"
             id="path1368" />
        </g>
        <g
           id="g1370"
           transform="translate(225.9482,1199.8301)">
          <path
             d="m 0,0 c 1.094,-3.661 1.684,-7.537 1.684,-11.552 0,-22.237 -18.028,-40.263 -40.264,-40.263 -22.236,0 -40.261,18.026 -40.261,40.263 0,4.015 0.591,7.891 1.685,11.552 z"
             style="fill:#92d459;fill-opacity:1;fill-rule:evenodd;stroke:none"
             id="path1372" />
        </g>
        <g
           id="g1374"
           transform="translate(270.2446,1155.7275)">
          <path
             d="m 0,0 c 17.547,0 31.769,-14.223 31.769,-31.769 0,-17.544 -14.222,-31.769 -31.769,-31.769 -17.544,0 -31.766,14.225 -31.766,31.769 C -31.766,-14.223 -17.544,0 0,0"
             style="fill:#92d459;fill-opacity:1;fill-rule:evenodd;stroke:none"
             id="path1376" />
        </g>
        <g
           id="g1378"
           transform="translate(350.3218,968.7905)">
          <path
             d="M 0,0 C 26.162,0 47.367,-21.205 47.367,-47.367 47.367,-73.522 26.162,-94.73 0,-94.73 c -26.159,0 -47.363,21.208 -47.363,47.363 C -47.363,-21.205 -26.159,0 0,0"
             style="fill:#92d459;fill-opacity:1;fill-rule:evenodd;stroke:none"
             id="path1380" />
        </g>
        <g
           id="g1382"
           transform="translate(404.894,1059.0444)">
          <path
             d="m 0,0 c 15.803,0 28.612,-12.813 28.612,-28.612 0,-15.801 -12.809,-28.613 -28.612,-28.613 -15.803,0 -28.616,12.812 -28.616,28.613 C -28.616,-12.813 -15.803,0 0,0"
             style="fill:#92d459;fill-opacity:1;fill-rule:evenodd;stroke:none"
             id="path1384" />
        </g>
        <g
           id="g1386"
           transform="translate(824.7061,1021.2373)">
          <path
             d="m 0,0 c 14.911,0 27.001,-12.09 27.001,-27.001 0,-14.911 -12.09,-27.001 -27.001,-27.001 -14.911,0 -27.001,12.09 -27.001,27.001 C -27.001,-12.09 -14.911,0 0,0"
             style="fill:#92d459;fill-opacity:1;fill-rule:evenodd;stroke:none"
             id="path1388" />
        </g>
        <g
           id="g1390"
           transform="translate(946.126,1018.2002)">
          <path
             d="m 0,0 c 9.41,0 17.04,-7.63 17.04,-17.04 0,-9.414 -7.63,-17.041 -17.04,-17.041 -9.411,0 -17.04,7.627 -17.04,17.041 C -17.04,-7.63 -9.411,0 0,0"
             style="fill:#92d459;fill-opacity:1;fill-rule:evenodd;stroke:none"
             id="path1392" />
        </g>
        <g
           id="g1394"
           transform="translate(1064.7959,890.5601)">
          <path
             d="m 0,0 c 12.011,0 21.749,-9.735 21.749,-21.746 0,-12.013 -9.738,-21.751 -21.749,-21.751 -12.01,0 -21.748,9.738 -21.748,21.751 C -21.748,-9.735 -12.01,0 0,0"
             style="fill:#92d459;fill-opacity:1;fill-rule:evenodd;stroke:none"
             id="path1396" />
        </g>
        <g
           id="g1398"
           transform="translate(1087.8252,1028.0083)">
          <path
             d="m 0,0 c 19.229,0 34.815,-15.584 34.815,-34.816 0,-19.226 -15.586,-34.813 -34.815,-34.813 -19.229,0 -34.816,15.587 -34.816,34.813 C -34.816,-15.584 -19.229,0 0,0"
             style="fill:#92d459;fill-opacity:1;fill-rule:evenodd;stroke:none"
             id="path1400" />
        </g>
        <g
           id="g1402"
           transform="translate(1020.5068,1093.7148)">
          <path
             d="m 0,0 c 10.166,0 18.409,-8.24 18.409,-18.406 0,-10.166 -8.243,-18.41 -18.409,-18.41 -10.167,0 -18.41,8.243 -18.41,18.41 C -18.41,-8.24 -10.167,0 0,0"
             style="fill:#92d459;fill-opacity:1;fill-rule:evenodd;stroke:none"
             id="path1404" />
        </g>
        <g
           id="g1406"
           transform="translate(829.1191,1176.0122)">
          <path
             d="m 0,0 c 9.367,0 16.961,-7.593 16.961,-16.958 0,-9.368 -7.594,-16.961 -16.961,-16.961 -9.367,0 -16.96,7.593 -16.96,16.961 C -16.96,-7.593 -9.367,0 0,0"
             style="fill:#92d459;fill-opacity:1;fill-rule:evenodd;stroke:none"
             id="path1408" />
        </g>
        <g
           id="g1410"
           transform="translate(645.8467,1177.7681)">
          <path
             d="m 0,0 c 30.008,0 54.336,-24.328 54.336,-54.336 0,-30.009 -24.328,-54.337 -54.336,-54.337 -30.009,0 -54.337,24.328 -54.337,54.337 C -54.337,-24.328 -30.009,0 0,0"
             style="fill:#92d459;fill-opacity:1;fill-rule:evenodd;stroke:none"
             id="path1412" />
        </g>
        <g
           id="g1414"
           transform="translate(679.0908,1028.8901)">
          <path
             d="m 0,0 c 27.707,0 50.169,-22.461 50.169,-50.168 0,-27.708 -22.462,-50.173 -50.169,-50.173 -27.707,0 -50.172,22.465 -50.172,50.173 C -50.172,-22.461 -27.707,0 0,0"
             style="fill:#92d459;fill-opacity:1;fill-rule:evenodd;stroke:none"
             id="path1416" />
        </g>
        <g
           id="g1418"
           transform="translate(746.8174,896.9761)">
          <path
             d="m 0,0 c 32.771,0 59.333,-26.563 59.333,-59.333 0,-32.771 -26.562,-59.334 -59.333,-59.334 -32.768,0 -59.331,26.563 -59.331,59.334 C -59.331,-26.563 -32.768,0 0,0"
             style="fill:#92d459;fill-opacity:1;fill-rule:evenodd;stroke:none"
             id="path1420" />
        </g>
        <g
           id="g1422"
           transform="translate(644.0625,834.8936)">
          <path
             d="m 0,0 c 30.25,0 54.774,-24.524 54.774,-54.778 0,-30.253 -24.524,-54.777 -54.774,-54.777 -30.254,0 -54.778,24.524 -54.778,54.777 C -54.778,-24.524 -30.254,0 0,0"
             style="fill:#92d459;fill-opacity:1;fill-rule:evenodd;stroke:none"
             id="path1424" />
        </g>
        <g
           id="g1426"
           transform="translate(906.0342,967.2354)">
          <path
             d="M 0,0 C 19.759,0 35.777,-16.022 35.777,-35.781 35.777,-55.54 19.759,-71.563 0,-71.563 c -19.763,0 -35.781,16.023 -35.781,35.782 C -35.781,-16.022 -19.763,0 0,0"
             style="fill:#92d459;fill-opacity:1;fill-rule:evenodd;stroke:none"
             id="path1428" />
        </g>
        <g
           id="g1430"
           transform="translate(975.9248,1018.2002)">
          <path
             d="m 0,0 c 16.457,0 29.797,-13.343 29.797,-29.796 0,-16.46 -13.34,-29.8 -29.797,-29.8 -16.456,0 -29.799,13.34 -29.799,29.8 C -29.799,-13.343 -16.456,0 0,0"
             style="fill:#92d459;fill-opacity:1;fill-rule:evenodd;stroke:none"
             id="path1432" />
        </g>
        <g
           id="g1434"
           transform="translate(938.9434,1116.2495)">
          <path
             d="m 0,0 c 27.638,0 50.039,-22.402 50.039,-50.04 0,-27.634 -22.401,-50.039 -50.039,-50.039 -27.634,0 -50.036,22.405 -50.036,50.039 C -50.036,-22.402 -27.634,0 0,0"
             style="fill:#92d459;fill-opacity:1;fill-rule:evenodd;stroke:none"
             id="path1436" />
        </g>
        <g
           id="g1438"
           transform="translate(1197.8115,958.7769)">
          <path
             d="m 0,0 c -32.937,5.242 -58.11,33.765 -58.11,68.177 0,34.412 25.173,62.938 58.11,68.18 z"
             style="fill:#92d459;fill-opacity:1;fill-rule:evenodd;stroke:none"
             id="path1440" />
        </g>
        <g
           id="g1442"
           transform="translate(1155.0938,1199.8301)">
          <path
             d="m 0,0 c 6.005,-7.098 9.622,-16.272 9.622,-26.294 0,-22.503 -18.24,-40.746 -40.741,-40.746 -22.505,0 -40.745,18.243 -40.745,40.746 0,10.022 3.62,19.196 9.622,26.294 z"
             style="fill:#92d459;fill-opacity:1;fill-rule:evenodd;stroke:none"
             id="path1444" />
        </g>
        <g
           id="g1446"
           transform="translate(1128.9775,1199.8301)">
          <path
             d="m 0,0 c 0.057,-0.779 0.09,-1.563 0.09,-2.357 0,-17.158 -13.91,-31.068 -31.069,-31.068 -17.157,0 -31.067,13.91 -31.067,31.068 0,0.794 0.03,1.578 0.086,2.357 z"
             style="fill:#92d459;fill-opacity:1;fill-rule:evenodd;stroke:none"
             id="path1448" />
        </g>
        <g
           id="g1450"
           transform="translate(804.2969,933.1387)">
          <path
             d="m 0,0 c 20.347,0 36.839,-16.496 36.839,-36.842 0,-20.346 -16.492,-36.839 -36.839,-36.839 -20.349,0 -36.842,16.493 -36.842,36.839 C -36.842,-16.496 -20.349,0 0,0"
             style="fill:#92d459;fill-opacity:1;fill-rule:evenodd;stroke:none"
             id="path1452" />
        </g>
        <g
           id="g1454"
           transform="translate(1145.4473,960.8428)">
          <path
             d="m 0,0 c 24.707,0 44.737,-20.031 44.737,-44.737 0,-24.71 -20.03,-44.738 -44.737,-44.738 -24.706,0 -44.737,20.028 -44.737,44.738 C -44.737,-20.031 -24.706,0 0,0"
             style="fill:#92d459;fill-opacity:1;fill-rule:evenodd;stroke:none"
             id="path1456" />
        </g>
        <g
           id="g1458"
           transform="translate(588.499,957.1553)">
          <path
             d="m 0,0 c 7.849,0 14.5,-5.12 16.798,-12.202 7.447,0 14.374,-4.745 16.798,-12.209 2.427,-7.464 -0.388,-15.372 -6.413,-19.749 2.301,-7.083 -0.07,-15.134 -6.419,-19.75 -6.35,-4.612 -14.743,-4.38 -20.764,-0.003 -6.025,-4.377 -14.418,-4.609 -20.764,0.003 -6.353,4.616 -8.724,12.667 -6.423,19.75 -6.024,4.377 -8.836,12.285 -6.413,19.749 2.424,7.464 9.354,12.209 16.798,12.209 C -14.503,-5.12 -7.852,0 0,0"
             style="fill:#fff07f;fill-opacity:1;fill-rule:evenodd;stroke:none"
             id="path1460" />
        </g>
        <g
           id="g1462"
           transform="translate(586.4233,836.6143)">
          <path
             d="m 0,0 c 7.849,0 14.5,-5.116 16.801,-12.199 7.445,0 14.371,-4.745 16.795,-12.209 2.427,-7.467 -0.385,-15.372 -6.413,-19.749 2.301,-7.082 -0.066,-15.133 -6.42,-19.749 -6.349,-4.612 -14.742,-4.38 -20.763,-0.007 -6.025,-4.373 -14.417,-4.605 -20.764,0.007 -6.35,4.615 -8.724,12.667 -6.42,19.749 -6.027,4.377 -8.839,12.282 -6.412,19.749 2.42,7.464 9.35,12.209 16.795,12.209 C -14.5,-5.116 -7.849,0 0,0"
             style="fill:#fff07f;fill-opacity:1;fill-rule:evenodd;stroke:none"
             id="path1464" />
        </g>
        <g
           id="g1466"
           transform="translate(776.8848,924.1294)">
          <path
             d="m 0,0 c 7.849,0 14.501,-5.12 16.802,-12.202 7.444,0 14.371,-4.742 16.795,-12.209 2.426,-7.461 -0.388,-15.372 -6.413,-19.749 2.3,-7.083 -0.07,-15.134 -6.42,-19.746 -6.35,-4.613 -14.743,-4.38 -20.764,-0.003 -6.024,-4.377 -14.414,-4.61 -20.764,0 -6.349,4.615 -8.723,12.666 -6.423,19.749 -6.024,4.377 -8.836,12.288 -6.412,19.749 2.427,7.467 9.351,12.209 16.798,12.209 C -14.5,-5.12 -7.849,0 0,0"
             style="fill:#fff07f;fill-opacity:1;fill-rule:evenodd;stroke:none"
             id="path1468" />
        </g>
        <g
           id="g1470"
           transform="translate(898.7725,1005.3345)">
          <path
             d="m 0,0 c 7.849,0 14.5,-5.12 16.801,-12.202 7.444,0 14.371,-4.742 16.795,-12.209 2.426,-7.461 -0.388,-15.373 -6.413,-19.749 2.301,-7.08 -0.07,-15.134 -6.419,-19.746 C 14.414,-68.519 6.021,-68.287 0,-63.91 c -6.025,-4.377 -14.418,-4.609 -20.768,0.004 -6.346,4.612 -8.72,12.666 -6.419,19.746 -6.025,4.376 -8.836,12.288 -6.413,19.749 2.427,7.467 9.351,12.209 16.798,12.209 C -14.501,-5.12 -7.849,0 0,0"
             style="fill:#fff07f;fill-opacity:1;fill-rule:evenodd;stroke:none"
             id="path1472" />
        </g>
        <g
           id="g1474"
           transform="translate(1111.8613,1120.8071)">
          <path
             d="m 0,0 c 7.849,0 14.5,-5.122 16.802,-12.204 7.443,0 14.37,-4.742 16.798,-12.209 2.423,-7.461 -0.392,-15.372 -6.413,-19.749 2.297,-7.08 -0.074,-15.133 -6.423,-19.746 -6.35,-4.613 -14.743,-4.38 -20.764,-0.003 -6.024,-4.377 -14.414,-4.61 -20.764,0.003 -6.349,4.613 -8.724,12.666 -6.423,19.746 -6.024,4.377 -8.836,12.288 -6.413,19.749 2.428,7.467 9.351,12.209 16.799,12.209 C -14.5,-5.122 -7.849,0 0,0"
             style="fill:#fff07f;fill-opacity:1;fill-rule:evenodd;stroke:none"
             id="path1476" />
        </g>
        <g
           id="g1478"
           transform="translate(875.5244,333.1641)">
          <path
             d="m 0,0 c 4.085,0 7.547,-2.663 8.747,-6.351 3.873,0 7.478,-2.469 8.741,-6.352 1.263,-3.887 -0.202,-8.005 -3.339,-10.282 1.201,-3.685 -0.037,-7.876 -3.339,-10.277 -3.306,-2.4 -7.673,-2.281 -10.81,-0.003 -3.137,-2.278 -7.503,-2.4 -10.806,0.003 -3.306,2.401 -4.543,6.592 -3.342,10.277 -3.137,2.277 -4.603,6.395 -3.339,10.282 1.263,3.883 4.867,6.352 8.744,6.352 C -7.547,-2.663 -4.085,0 0,0"
             style="fill:#fff07f;fill-opacity:1;fill-rule:evenodd;stroke:none"
             id="path1480" />
        </g>
        <g
           id="g1482"
           transform="translate(1057.3223,312.5293)">
          <path
             d="m 0,0 c 4.085,0 7.547,-2.662 8.744,-6.35 3.876,0 7.481,-2.47 8.744,-6.353 1.263,-3.886 -0.203,-8.004 -3.34,-10.282 1.202,-3.688 -0.036,-7.875 -3.338,-10.28 -3.306,-2.397 -7.676,-2.278 -10.81,0 -3.137,-2.278 -7.504,-2.4 -10.81,0 -3.302,2.405 -4.539,6.596 -3.338,10.28 -3.137,2.278 -4.603,6.396 -3.339,10.282 1.262,3.883 4.867,6.353 8.743,6.353 C -7.547,-2.662 -4.085,0 0,0"
             style="fill:#fff07f;fill-opacity:1;fill-rule:evenodd;stroke:none"
             id="path1484" />
        </g>
        <g
           id="g1486"
           transform="translate(1111.3975,388.4756)">
          <path
             d="m 0,0 c 4.085,0 7.547,-2.663 8.743,-6.351 3.877,0 7.481,-2.469 8.744,-6.352 1.26,-3.887 -0.202,-8.005 -3.339,-10.282 1.198,-3.688 -0.036,-7.875 -3.342,-10.28 -3.306,-2.4 -7.673,-2.278 -10.806,0 -3.137,-2.278 -7.504,-2.4 -10.81,0 -3.306,2.405 -4.54,6.595 -3.342,10.28 -3.137,2.277 -4.599,6.395 -3.336,10.282 1.26,3.883 4.864,6.352 8.741,6.352 C -7.551,-2.663 -4.089,0 0,0"
             style="fill:#fff07f;fill-opacity:1;fill-rule:evenodd;stroke:none"
             id="path1488" />
        </g>
        <g
           id="g1490"
           transform="translate(1007.8535,471.8916)">
          <path
             d="m 0,0 c 4.085,0 7.547,-2.662 8.744,-6.35 3.876,0 7.481,-2.469 8.743,-6.352 1.264,-3.887 -0.202,-8.005 -3.339,-10.283 1.201,-3.684 -0.036,-7.875 -3.341,-10.28 -3.303,-2.4 -7.674,-2.277 -10.807,0 -3.137,-2.277 -7.504,-2.4 -10.81,0 -3.302,2.405 -4.54,6.596 -3.342,10.28 -3.133,2.278 -4.599,6.396 -3.336,10.283 1.263,3.883 4.868,6.352 8.744,6.352 C -7.547,-2.662 -4.085,0 0,0"
             style="fill:#fff07f;fill-opacity:1;fill-rule:evenodd;stroke:none"
             id="path1492" />
        </g>
        <g
           id="g1494"
           transform="translate(1070.3008,433.6602)">
          <path
             d="m 0,0 c 5.869,0 10.846,-3.83 12.563,-9.125 5.571,0 10.75,-3.548 12.564,-9.132 1.814,-5.581 -0.291,-11.496 -4.798,-14.768 1.721,-5.296 -0.053,-11.321 -4.801,-14.769 C 10.779,-51.246 4.506,-51.07 0,-47.798 c -4.506,-3.272 -10.78,-3.448 -15.531,0.004 -4.749,3.451 -6.523,9.473 -4.802,14.769 -4.506,3.272 -6.608,9.187 -4.795,14.768 1.815,5.584 6.993,9.132 12.561,9.132 C -10.847,-3.83 -5.873,0 0,0"
             style="fill:#fff07f;fill-opacity:1;fill-rule:evenodd;stroke:none"
             id="path1496" />
        </g>
        <g
           id="g1498"
           transform="translate(764.6865,1062.2739)">
          <path
             d="m 0,0 c 4.085,0 7.547,-2.666 8.743,-6.35 3.877,0 7.481,-2.47 8.744,-6.356 1.26,-3.886 -0.202,-8.001 -3.338,-10.279 1.197,-3.687 -0.037,-7.879 -3.343,-10.279 -3.306,-2.401 -7.673,-2.278 -10.806,0 -3.138,-2.278 -7.504,-2.401 -10.809,0 -3.307,2.4 -4.541,6.592 -3.343,10.279 -3.134,2.278 -4.599,6.393 -3.336,10.279 1.26,3.886 4.864,6.356 8.741,6.356 C -7.551,-2.666 -4.089,0 0,0"
             style="fill:#fff07f;fill-opacity:1;fill-rule:evenodd;stroke:none"
             id="path1500" />
        </g>
        <g
           id="g1502"
           transform="translate(495.9639,1071.9893)">
          <path
             d="m 0,0 c 4.085,0 7.55,-2.666 8.744,-6.35 3.876,0 7.48,-2.47 8.744,-6.356 1.263,-3.886 -0.203,-8.001 -3.34,-10.279 1.201,-3.687 -0.033,-7.879 -3.342,-10.279 -3.303,-2.401 -7.673,-2.281 -10.806,0 -3.134,-2.281 -7.504,-2.401 -10.807,0 -3.309,2.4 -4.542,6.592 -3.342,10.279 -3.137,2.278 -4.602,6.393 -3.339,10.279 1.263,3.886 4.868,6.356 8.744,6.356 C -7.547,-2.666 -4.086,0 0,0"
             style="fill:#fff07f;fill-opacity:1;fill-rule:evenodd;stroke:none"
             id="path1504" />
        </g>
        <g
           id="g1506"
           transform="translate(427.624,912.4014)">
          <path
             d="m 0,0 c 4.086,0 7.547,-2.663 8.744,-6.35 3.876,0 7.481,-2.47 8.744,-6.353 1.263,-3.886 -0.202,-8.005 -3.339,-10.282 1.2,-3.685 -0.037,-7.875 -3.342,-10.276 C 7.504,-35.662 3.134,-35.543 0,-33.268 c -3.133,-2.275 -7.503,-2.397 -10.81,0.007 -3.305,2.401 -4.539,6.591 -3.338,10.276 -3.137,2.277 -4.603,6.396 -3.34,10.282 1.264,3.883 4.865,6.353 8.744,6.353 C -7.55,-2.663 -4.085,0 0,0"
             style="fill:#fff07f;fill-opacity:1;fill-rule:evenodd;stroke:none"
             id="path1508" />
        </g>
        <g
           id="g1510"
           transform="translate(1073.7363,866.4902)">
          <path
             d="m 0,0 c 4.085,0 7.547,-2.663 8.743,-6.35 3.876,0 7.481,-2.47 8.744,-6.353 1.26,-3.886 -0.202,-8.004 -3.339,-10.282 1.198,-3.687 -0.037,-7.875 -3.342,-10.28 C 7.5,-35.662 3.133,-35.542 0,-33.267 c -3.138,-2.275 -7.504,-2.398 -10.811,0.002 -3.305,2.405 -4.539,6.596 -3.341,10.28 -3.134,2.278 -4.6,6.396 -3.336,10.282 1.259,3.883 4.867,6.353 8.74,6.353 C -7.551,-2.663 -4.086,0 0,0"
             style="fill:#fff07f;fill-opacity:1;fill-rule:evenodd;stroke:none"
             id="path1512" />
        </g>
        <g
           id="g1514"
           transform="translate(1138.0303,988.8813)">
          <path
             d="m 0,0 c 4.085,0 7.547,-2.666 8.743,-6.353 3.877,0 7.481,-2.467 8.741,-6.353 1.263,-3.886 -0.199,-8.005 -3.336,-10.279 1.198,-3.688 -0.036,-7.879 -3.342,-10.28 C 7.5,-35.665 3.133,-35.546 0,-33.268 c -3.137,-2.278 -7.504,-2.397 -10.81,0.003 -3.306,2.401 -4.54,6.592 -3.342,10.28 -3.137,2.274 -4.599,6.393 -3.339,10.279 1.263,3.886 4.867,6.353 8.744,6.353 C -7.551,-2.666 -4.085,0 0,0"
             style="fill:#fff07f;fill-opacity:1;fill-rule:evenodd;stroke:none"
             id="path1516" />
        </g>
        <g
           id="g1518"
           transform="translate(934.165,1096.4204)">
          <path
             d="m 0,0 c 5.869,0 10.843,-3.83 12.565,-9.125 5.57,0 10.75,-3.548 12.563,-9.132 1.813,-5.584 -0.292,-11.499 -4.798,-14.768 1.721,-5.299 -0.054,-11.321 -4.802,-14.769 C 10.78,-51.246 4.503,-51.07 0,-47.801 c -4.506,-3.269 -10.779,-3.445 -15.531,0.007 -4.748,3.448 -6.523,9.47 -4.801,14.769 -4.507,3.269 -6.608,9.184 -4.795,14.768 1.814,5.584 6.993,9.132 12.561,9.132 C -10.846,-3.83 -5.872,0 0,0"
             style="fill:#fff07f;fill-opacity:1;fill-rule:evenodd;stroke:none"
             id="path1520" />
        </g>
        <g
           id="g1522"
           transform="translate(1001.0264,1156.394)">
          <path
             d="m 0,0 c 5.869,0 10.846,-3.83 12.563,-9.126 5.571,10e-4 10.75,-3.547 12.564,-9.131 1.813,-5.582 -0.292,-11.497 -4.798,-14.77 1.721,-5.294 -0.053,-11.319 -4.802,-14.767 -4.748,-3.452 -11.021,-3.28 -15.527,-0.004 -4.507,-3.276 -10.78,-3.448 -15.532,0 -4.748,3.456 -6.522,9.477 -4.801,14.771 -4.506,3.273 -6.608,9.188 -4.795,14.77 1.813,5.584 6.993,9.132 12.561,9.131 C -10.847,-3.83 -5.873,0 0,0"
             style="fill:#fff07f;fill-opacity:1;fill-rule:evenodd;stroke:none"
             id="path1524" />
        </g>
        <g
           id="g1526"
           transform="translate(703.3857,1166.9619)">
          <path
             d="m 0,0 c 5.869,0 10.847,-3.83 12.567,-9.125 5.568,0 10.748,-3.548 12.561,-9.13 1.813,-5.583 -0.292,-11.498 -4.795,-14.771 1.721,-5.297 -0.053,-11.319 -4.801,-14.768 C 10.78,-51.243 4.507,-51.071 0,-47.798 c -4.506,-3.273 -10.779,-3.445 -15.527,0.004 -4.749,3.449 -6.523,9.471 -4.805,14.768 -4.503,3.273 -6.608,9.188 -4.795,14.771 1.814,5.582 6.993,9.13 12.564,9.13 C -10.846,-3.83 -5.868,0 0,0"
             style="fill:#fff07f;fill-opacity:1;fill-rule:evenodd;stroke:none"
             id="path1528" />
        </g>
        <g
           id="g1530"
           transform="translate(484.6797,1156.542)">
          <path
             d="m 0,0 c 5.869,0 10.843,-3.83 12.564,-9.127 5.567,0.002 10.746,-3.548 12.563,-9.13 1.811,-5.582 -0.291,-11.498 -4.794,-14.771 1.718,-5.295 -0.053,-11.317 -4.805,-14.768 C 10.78,-51.248 4.503,-51.072 0,-47.8 c -4.506,-3.272 -10.783,-3.448 -15.531,0.004 -4.748,3.451 -6.523,9.473 -4.801,14.768 -4.504,3.273 -6.609,9.189 -4.796,14.771 1.814,5.582 6.994,9.132 12.561,9.13 C -10.846,-3.83 -5.869,0 0,0"
             style="fill:#fff07f;fill-opacity:1;fill-rule:evenodd;stroke:none"
             id="path1532" />
        </g>
      </g>
    </g>
  </g>
</svg>
